# Blender v2.79 (sub 0) OBJ File: 'ArkHallwayPillar.blend'
# www.blender.org
mtllib ArkHallwayPillar.mtl
o Cube
v 0.500000 0.000000 0.000000
v 0.500000 0.000000 2.000000
v -0.500000 0.000000 2.000000
v -0.500000 0.000000 -0.000000
v 0.500000 0.150000 0.000001
v 0.500000 0.150000 2.000001
v -0.500000 0.150000 2.000000
v -0.500000 0.150000 0.000000
v 0.500000 0.550000 0.000001
v 0.500000 0.550000 1.600001
v -0.500000 0.550000 0.000000
v -0.500000 0.550000 1.600000
v 0.500000 0.950000 0.000001
v 0.500000 0.950000 2.000001
v -0.500000 0.950000 0.000000
v -0.500000 0.950000 2.000000
v 0.500000 1.550000 0.000001
v 0.500000 1.550000 2.000001
v -0.500000 1.550000 0.000000
v -0.500000 1.550000 2.000000
v 0.500000 0.000000 1.333333
v -0.500000 0.000000 1.333333
v 0.500000 0.150000 1.333334
v -0.500000 0.150000 1.333333
v 0.500000 0.550000 1.066667
v -0.500000 0.550000 1.066666
v 0.500000 0.950000 1.333334
v -0.500000 0.950000 1.333333
v 0.500000 1.550000 1.333334
v -0.500000 1.550000 1.333333
v 0.500000 1.550000 0.000001
v -0.500000 1.550000 0.000000
v 0.500000 1.550000 1.333334
v -0.500000 1.550000 1.333333
v 0.500000 1.750000 0.000001
v -0.500000 1.750000 0.000000
v 0.500000 1.750000 1.333334
v -0.500000 1.750000 1.333333
v 0.350000 2.750000 1.000001
v -0.350000 2.750000 1.000000
v 0.350000 2.750000 1.533334
v -0.350000 2.750000 1.533333
v 0.350000 4.550000 1.000001
v -0.350000 4.550000 1.000000
v -0.350000 4.550000 1.266666
v 0.350000 4.550000 1.266667
v 0.350000 4.550000 1.533334
v -0.350000 4.550000 1.533333
v 0.350000 4.350000 1.533334
v -0.350000 4.350000 1.533333
v 0.499998 7.950000 3.433334
v 0.499998 7.950000 3.193334
v -0.500001 7.950000 3.193333
v -0.500002 7.950000 3.433333
v 0.499998 10.549999 3.433334
v 0.499998 10.549999 3.193334
v -0.500001 10.549999 3.193333
v -0.500002 10.549999 3.433333
v 0.500000 4.950000 0.600001
v -0.500000 4.950000 0.600000
v -0.500000 4.950000 1.266667
v 0.500000 4.950000 1.266667
v 0.500001 7.950000 1.800002
v -0.499999 7.950000 1.800001
v -0.499999 7.950000 2.466668
v 0.500001 7.950000 2.466669
v 0.500001 10.550000 1.800002
v -0.499999 10.550000 1.800002
v -0.499999 10.550000 2.466668
v 0.500001 10.550000 2.466669
v 0.500000 5.950000 1.666668
v 0.500001 6.950000 2.066668
v -0.500000 6.950000 2.066667
v -0.500000 5.950000 1.666667
v -0.499999 6.950000 1.400001
v -0.500000 5.950000 1.000000
v 0.500000 5.950000 1.000001
v 0.500001 6.950000 1.400001
v -0.499999 7.172835 0.842915
v -0.499999 6.172835 0.442914
v 0.500001 6.172835 0.442915
v 0.500001 7.172835 0.842915
v -0.499999 7.261969 0.620080
v -0.499999 6.261969 0.220080
v 0.500001 6.261969 0.220081
v 0.500001 7.261969 0.620081
v -0.499999 7.172835 0.842915
v 0.500001 7.172835 0.842915
v -0.499999 7.261969 0.620080
v 0.500001 7.261969 0.620081
v -0.499999 7.172835 0.842915
v 0.500001 7.172835 0.842915
v -0.499999 7.261969 0.620080
v 0.500001 7.261969 0.620081
v -0.499999 7.950000 0.842915
v 0.500001 7.950000 0.842915
v -0.499999 7.950000 0.620080
v 0.500001 7.950000 0.620081
v -0.499999 10.550000 0.842915
v 0.500001 10.550000 0.842915
v -0.499999 10.550000 0.620080
v 0.500001 10.550000 0.620081
v -0.499999 5.172829 0.042919
v 0.500001 5.172829 0.042919
v -0.499999 5.809246 0.042919
v 0.500001 5.809246 0.042920
v 0.500000 2.350000 0.600001
v 0.500000 2.350000 1.933334
v -0.500000 2.350000 1.933333
v -0.500000 2.350000 0.600000
v 0.500000 4.350000 1.933334
v 0.500000 4.950000 1.933334
v -0.500000 4.950000 1.266667
v -0.500000 4.950000 0.600000
v 0.500000 4.950000 0.600001
v 0.500000 4.950000 1.266667
v -0.500000 4.950000 1.933333
v -0.500000 4.350000 1.933333
v 0.500000 2.600000 0.850001
v 0.500000 2.600000 1.683334
v -0.500000 2.600000 1.683333
v -0.500000 2.600000 0.850000
v 0.500000 4.350000 1.683334
v 0.500000 4.700000 1.683334
v -0.500000 4.700000 1.266667
v -0.500000 4.700000 0.850000
v 0.500000 4.700000 0.850001
v 0.500000 4.700000 1.266667
v -0.500000 4.700000 1.683333
v -0.500000 4.350000 1.683333
v 0.499998 12.949999 2.233334
v 0.499998 12.949999 1.993334
v -0.500001 12.949999 1.993333
v -0.500002 12.949999 2.233333
v 0.500001 12.950001 0.600002
v -0.499999 12.950001 0.600002
v -0.499999 12.950001 1.266668
v 0.500001 12.950001 1.266669
v -0.499999 12.950001 -0.357085
v 0.500001 12.950001 -0.357085
v -0.499999 12.950001 -0.579920
v 0.500001 12.950001 -0.579919
vn -0.0000 -1.0000 0.0000
vn -0.0000 0.7071 0.7071
vn 1.0000 0.0000 0.0000
vn -0.0000 -0.0000 1.0000
vn 0.0000 0.0000 -1.0000
vn -0.0000 -0.7071 0.7071
vn -1.0000 -0.0000 -0.0000
vn 0.0000 1.0000 0.0000
vn 0.0000 0.3872 -0.9220
vn 0.0000 0.7071 -0.7071
vn -0.0000 -0.3846 0.9231
vn -0.0000 0.4472 0.8944
vn -0.0000 -0.3714 0.9285
vn 0.0000 0.3714 -0.9285
vn 0.0000 -0.9285 -0.3714
vn -0.0000 0.9285 0.3714
vn 0.0000 0.3644 -0.9312
vn 0.7071 0.7071 0.0000
vn -0.7071 0.7071 -0.0000
vn 0.7071 0.0000 -0.7071
vn -0.7071 -0.7071 -0.0000
vn 0.7071 -0.7071 0.0000
vn -0.7071 0.0000 -0.7071
vn 0.7071 -0.0000 0.7071
vn -0.7071 -0.0000 0.7071
vn 0.0000 -0.4472 -0.8944
usemtl Material
s off
f 21//1 2//1 3//1 22//1
f 7//2 6//2 10//2 12//2
f 21//3 23//3 6//3 2//3
f 2//4 6//4 7//4 3//4
f 5//3 23//3 21//3 1//3
f 5//5 1//5 4//5 8//5
f 12//6 10//6 14//6 16//6
f 22//7 24//7 8//7 4//7
f 24//7 7//7 12//7 26//7
f 5//5 8//5 11//5 9//5
f 28//7 16//7 20//7 30//7
f 15//7 28//7 30//7 19//7
f 26//7 12//7 16//7 28//7
f 9//5 11//5 15//5 13//5
f 29//8 30//8 20//8 18//8
f 13//5 15//5 19//5 17//5
f 16//4 14//4 18//4 20//4
f 11//7 26//7 28//7 15//7
f 14//3 27//3 29//3 18//3
f 19//4 30//4 34//4 32//4
f 17//4 19//4 32//4 31//4
f 25//3 9//3 13//3 27//3
f 10//3 25//3 27//3 14//3
f 8//7 24//7 26//7 11//7
f 23//3 5//3 9//3 25//3
f 6//3 23//3 25//3 10//3
f 3//7 7//7 24//7 22//7
f 1//1 21//1 22//1 4//1
f 29//4 17//4 31//4 33//4
f 33//3 31//3 35//3 37//3
f 34//4 33//4 37//4 38//4
f 30//4 29//4 33//4 34//4
f 35//3 107//3 108//3 37//3
f 32//7 34//7 38//7 36//7
f 36//7 38//7 109//7 110//7
f 31//5 32//5 36//5 35//5
f 112//9 117//9 53//9 52//9
f 38//6 37//6 108//6 109//6
f 35//10 36//10 110//10 107//10
f 113//4 116//4 62//4 61//4
f 116//8 113//8 117//8 112//8
f 107//5 110//5 114//5 115//5
f 43//3 46//3 47//3 49//3 41//3 39//3
f 50//7 48//7 45//7 44//7 40//7 42//7
f 109//4 108//4 111//4 118//4
f 54//4 51//4 55//4 58//4
f 111//3 112//3 52//3 51//3
f 117//7 118//7 54//7 53//7
f 118//11 111//11 51//11 54//11
f 99//12 100//12 140//12 139//12
f 52//5 53//5 57//5 56//5
f 53//7 54//7 58//7 57//7
f 51//3 52//3 56//3 55//3
f 73//13 72//13 66//13 65//13
f 114//4 113//4 61//4 60//4
f 116//4 115//4 59//4 62//4
f 115//4 114//4 60//4 59//4
f 64//7 65//7 69//7 68//7
f 75//7 73//7 65//7 64//7
f 72//3 78//3 63//3 66//3
f 78//14 75//14 64//14 63//14
f 58//12 55//12 131//12 134//12
f 66//3 63//3 67//3 70//3
f 63//5 64//5 68//5 67//5
f 65//4 66//4 70//4 69//4
f 59//14 60//14 76//14 77//14
f 78//3 77//3 81//3 82//3
f 62//3 59//3 77//3 71//3
f 71//3 77//3 78//3 72//3
f 60//7 61//7 74//7 76//7
f 76//7 74//7 73//7 75//7
f 61//13 62//13 71//13 74//13
f 74//13 71//13 72//13 73//13
f 81//13 80//13 103//13 104//13
f 76//7 75//7 79//7 80//7
f 77//15 76//15 80//15 81//15
f 75//16 78//16 82//16 79//16
f 85//14 84//14 83//14 86//14
f 80//7 79//7 83//7 84//7
f 86//4 83//4 89//4 90//4
f 82//3 81//3 85//3 86//3
f 89//4 87//4 91//4 93//4
f 79//4 82//4 88//4 87//4
f 83//4 79//4 87//4 89//4
f 82//4 86//4 90//4 88//4
f 91//4 92//4 96//4 95//4
f 87//4 88//4 92//4 91//4
f 88//4 90//4 94//4 92//4
f 90//4 89//4 93//4 94//4
f 96//3 98//3 102//3 100//3
f 92//3 94//3 98//3 96//3
f 94//5 93//5 97//5 98//5
f 93//7 91//7 95//7 97//7
f 100//3 102//3 142//3 140//3
f 98//5 97//5 101//5 102//5
f 97//7 95//7 99//7 101//7
f 95//4 96//4 100//4 99//4
f 104//5 103//5 105//5 106//5
f 85//3 81//3 104//3 106//3
f 80//7 84//7 105//7 103//7
f 84//17 85//17 106//17 105//17
f 27//3 13//3 17//3 29//3
f 119//3 120//3 108//3 107//3
f 121//7 122//7 110//7 109//7
f 123//3 124//3 112//3 111//3
f 126//7 125//7 113//7 114//7
f 128//3 127//3 115//3 116//3
f 124//3 128//3 116//3 112//3
f 125//7 129//7 117//7 113//7
f 130//7 121//7 109//7 118//7
f 120//3 123//3 111//3 108//3
f 129//7 130//7 118//7 117//7
f 127//3 119//3 107//3 115//3
f 122//7 126//7 114//7 110//7
f 39//18 41//18 120//18 119//18
f 42//19 40//19 122//19 121//19
f 49//20 47//20 124//20 123//20
f 44//21 45//21 125//21 126//21
f 46//22 43//22 127//22 128//22
f 47//22 46//22 128//22 124//22
f 45//21 48//21 129//21 125//21
f 50//23 42//23 121//23 130//23
f 41//20 49//20 123//20 120//20
f 48//23 50//23 130//23 129//23
f 43//24 39//24 119//24 127//24
f 40//25 44//25 126//25 122//25
f 134//8 131//8 132//8 133//8
f 135//8 136//8 137//8 138//8
f 139//8 140//8 142//8 141//8
f 69//12 70//12 138//12 137//12
f 55//3 56//3 132//3 131//3
f 67//26 68//26 136//26 135//26
f 102//26 101//26 141//26 142//26
f 56//26 57//26 133//26 132//26
f 68//7 69//7 137//7 136//7
f 101//7 99//7 139//7 141//7
f 57//7 58//7 134//7 133//7
f 70//3 67//3 135//3 138//3
