# Alias OBJ Model File
# Exported from SketchUp, (c) 2000-2012 Trimble Navigation Limited
# File units = meters

mtllib Block.mtl

g Mesh1 Model

usemtl FrontColor
v -0.5 -0.5 -0.5
vt 19.685 -19.685
vn 0 0 -1
v -0.45 -0.45 -0.5
vt 17.7165 -17.7165
v 0.5 -0.5 -0.5
vt -19.685 -19.685
f 1/1/1 2/2/1 3/3/1

v -0.5 0.5 -0.5
vt 19.685 19.685
f 2/2/1 1/1/1 4/4/1

vn -1 0 -0
v -0.5 -0.45 -0.45
vt -17.7165 -17.7165
vt -19.685 19.685
f 1/3/2 5/5/2 4/6/2

v -0.5 -0.45 0.45
f 1/3/2 6/2/2 5/5/2

v -0.5 -0.5 0.5
f 7/1/2 6/2/2 1/3/2

v -0.5 0.45 0.45
vt 17.7165 17.7165
f 6/2/2 7/1/2 8/7/2

v -0.5 0.5 0.5
f 9/4/2 8/7/2 7/1/2

f 8/7/2 9/4/2 4/6/2

vn 0 1 -0
v -0.45 0.5 0.45
f 9/3/3 10/5/3 4/6/3

v 0.5 0.5 0.5
f 10/5/3 9/3/3 11/1/3

vn 0 0 1
v -0.45 0.45 0.5
vt -17.7165 17.7165
f 9/6/4 12/8/4 11/4/4

v -0.45 -0.45 0.5
f 9/6/4 13/5/4 12/8/4

f 7/3/4 13/5/4 9/6/4

v 0.45 -0.45 0.5
f 13/5/4 7/3/4 14/2/4

v 0.5 -0.5 0.5
f 15/1/4 14/2/4 7/3/4

f 14/2/4 15/1/4 11/4/4

vn 1 0 -0
v 0.5 -0.45 0.45
f 15/3/5 16/5/5 11/6/5

f 16/5/5 15/3/5 3/1/5

vn 0 -1 -0
v 0.45 -0.5 0.45
f 15/3/6 17/5/6 3/6/6

v -0.45 -0.5 0.45
f 15/3/6 18/2/6 17/5/6

f 7/1/6 18/2/6 15/3/6

v -0.45 -0.5 -0.45
f 18/2/6 7/1/6 19/7/6

f 1/4/6 19/7/6 7/1/6

f 19/7/6 1/4/6 3/6/6

v 0.45 -0.5 -0.45
f 19/7/6 3/6/6 20/8/6

f 20/8/6 3/6/6 17/5/6

v 0.35 -0.45 -0.35
vt -13.7795 -20.2479
vn -0.447214 -0.894427 -0
vt -17.7165 -24.6496
vt 17.7165 -24.6496
v 0.35 -0.45 0.35
vt 13.7795 -20.2479
f 21/9/7 20/10/7 17/11/7 22/12/7 

vn 0 -0.894427 0.447214
v -0.35 -0.45 -0.35
f 20/11/8 21/12/8 23/9/8 19/10/8 

v -0.35 -0.35 -0.35
vt -13.7795 -13.7795
vt -13.7795 -17.7165
vt 13.7795 -17.7165
v 0.35 -0.35 -0.35
vt 13.7795 -13.7795
f 24/13/4 23/14/4 21/15/4 25/16/4 

v -0.35 -0.35 0.35
v -0.35 -0.45 0.35
f 26/13/5 27/14/5 23/15/5 24/16/5 

v 0.35 -0.35 0.35
f 28/13/1 22/14/1 27/15/1 26/16/1 

f 25/13/2 21/14/2 22/15/2 28/16/2 

v 0.45 -0.35 0.35
vt 17.7165 -13.7795
v 0.45 -0.35 -0.35
vt 17.7165 13.7795
vt 13.7795 13.7795
f 28/16/3 29/17/3 30/18/3 25/19/3 

v 0.35 0.35 0.35
vt -13.7795 13.7795
v 0.45 0.35 0.35
vt -17.7165 13.7795
vt -17.7165 -13.7795
f 31/20/1 32/21/1 29/22/1 28/13/1 

v 0.35 0.35 -0.35
v 0.45 0.35 -0.35
f 33/20/6 34/21/6 32/22/6 31/13/6 

f 25/16/4 30/17/4 34/18/4 33/19/4 

vt 20.2479 -13.7795
vn 0.894427 0 0.447214
v 0.5 -0.45 -0.45
vt 24.6496 -17.7165
v 0.5 0.45 -0.45
vt 24.6496 17.7165
vt 20.2479 13.7795
f 30/23/9 35/24/9 36/25/9 34/26/9 

vn 0.894427 0.447214 -0
f 35/11/10 30/12/10 29/9/10 16/10/10 

vt -24.6496 -17.7165
vn 0.894427 0 -0.447214
vt -20.2479 -13.7795
vt -20.2479 13.7795
v 0.5 0.45 0.45
vt -24.6496 17.7165
f 16/27/11 29/28/11 32/29/11 37/30/11 

vt -17.7165 24.6496
vn 0.894427 -0.447214 -0
vt -13.7795 20.2479
vt 13.7795 20.2479
vt 17.7165 24.6496
f 37/31/12 32/32/12 34/33/12 36/34/12 

v 0.5 0.5 -0.5
f 38/4/5 37/8/5 36/7/5

f 11/6/5 37/8/5 38/4/5

f 37/8/5 11/6/5 16/5/5

v 0.45 0.5 -0.45
f 38/4/3 39/7/3 11/1/3

v -0.45 0.5 -0.45
f 38/4/3 40/8/3 39/7/3

f 4/6/3 40/8/3 38/4/3

f 40/8/3 4/6/3 10/5/3

v -0.35 0.45 -0.35
vn 0.447214 0.894427 -0
v -0.35 0.45 0.35
f 41/33/13 40/34/13 10/31/13 42/32/13 

v 0.35 0.45 -0.35
vn 0 0.894427 0.447214
f 43/33/14 39/34/14 40/31/14 41/32/14 

v 0.35 0.45 0.35
vn -0.447214 0.894427 -0
v 0.45 0.5 0.45
f 44/33/15 45/34/15 39/31/15 43/32/15 

vn 0 0.894427 -0.447214
f 45/31/16 44/32/16 42/33/16 10/34/16 

v -0.35 0.35 0.35
vt 13.7795 17.7165
vt -13.7795 17.7165
f 46/19/1 42/35/1 44/36/1 31/20/1 

v -0.35 0.35 -0.35
f 47/19/5 41/35/5 42/36/5 46/20/5 

f 33/19/4 43/35/4 41/36/4 47/20/4 

f 31/19/2 44/35/2 43/36/2 33/20/2 

v -0.35 0.35 -0.45
v 0.35 0.35 -0.45
f 47/19/6 48/35/6 49/36/6 33/20/6 

v -0.35 -0.35 -0.45
f 24/16/5 50/17/5 48/18/5 47/19/5 

v 0.35 -0.35 -0.45
f 25/19/3 51/35/3 50/36/3 24/20/3 

f 33/20/2 49/21/2 51/22/2 25/13/2 

v 0.45 -0.45 -0.5
vn -0.447214 0 -0.894427
v 0.45 0.45 -0.5
f 52/27/17 51/28/17 49/29/17 53/30/17 

vn 0 0.447214 -0.894427
f 2/11/18 50/12/18 51/9/18 52/10/18 

vn 0.447214 0 -0.894427
v -0.45 0.45 -0.5
f 50/23/19 2/24/19 54/25/19 48/26/19 

f 2/2/1 4/4/1 54/7/1

f 54/7/1 4/4/1 53/8/1

f 38/6/1 53/8/1 4/4/1

f 38/6/1 52/5/1 53/8/1

f 3/3/1 52/5/1 38/6/1

f 52/5/1 3/3/1 2/2/1

f 38/4/5 36/7/5 3/1/5

f 35/2/5 3/1/5 36/7/5

f 16/5/5 3/1/5 35/2/5

vn 0 -0.447214 -0.894427
f 53/31/20 49/32/20 48/33/20 54/34/20 

v -0.45 0.35 -0.35
v -0.45 -0.35 -0.35
f 47/20/4 55/21/4 56/22/4 24/13/4 

v -0.45 0.35 0.35
f 46/16/6 57/17/6 55/18/6 47/19/6 

v -0.45 -0.35 0.35
f 26/16/1 58/17/1 57/18/1 46/19/1 

f 24/20/3 56/21/3 58/22/3 26/13/3 

vn -0.894427 0.447214 -0
f 6/11/21 58/12/21 56/9/21 5/10/21 

vn -0.894427 0 -0.447214
f 8/25/22 57/26/22 58/23/22 6/24/22 

vn -0.894427 -0.447214 -0
v -0.5 0.45 -0.45
f 57/33/23 8/34/23 59/31/23 55/32/23 

f 8/7/2 4/6/2 59/8/2

f 59/8/2 4/6/2 5/5/2

vn -0.894427 0 0.447214
f 55/29/24 59/30/24 5/27/24 56/28/24 

v -0.35 0.35 0.447
vt -17.5984 13.7795
v -0.35 -0.35 0.447
vt -17.5984 -13.7795
f 46/20/5 60/37/5 61/38/5 26/13/5 

v 0.35 0.35 0.447
vt -13.7795 -17.5984
vt 13.7795 -17.5984
f 31/13/6 62/39/6 60/40/6 46/16/6 

v 0.35 -0.35 0.447
vt 17.5984 -13.7795
vt 17.5984 13.7795
f 28/16/2 63/41/2 62/42/2 31/19/2 

f 26/13/3 61/39/3 63/40/3 28/16/3 

vt 17.7165 -24.8722
vn 0 0.468294 0.883573
vt 13.7795 -20.4164
vt -13.7795 -20.4164
vt -17.7165 -24.8722
f 14/43/25 63/44/25 61/45/25 13/46/25 

vt 20.4164 -13.7795
vn -0.468294 0 0.883573
vt 24.8722 -17.7165
v 0.45 0.45 0.5
vt 24.8722 17.7165
vt 20.4164 13.7795
f 63/47/26 14/48/26 64/49/26 62/50/26 

f 14/2/4 11/4/4 64/7/4

f 64/7/4 11/4/4 12/8/4

vt 13.7795 20.4164
vn 0 -0.468294 0.883573
vt 17.7165 24.8722
vt -17.7165 24.8722
vt -13.7795 20.4164
f 62/51/27 64/52/27 12/53/27 60/54/27 

vt -20.4164 13.7795
vn 0.468294 0 0.883573
vt -24.8722 17.7165
vt -24.8722 -17.7165
vt -20.4164 -13.7795
f 60/55/28 12/56/28 13/57/28 61/58/28 

f 10/5/3 11/1/3 45/2/3

f 45/2/3 11/1/3 39/7/3

vn 0 -0.894427 -0.447214
f 18/11/29 27/12/29 22/9/29 17/10/29 

vn 0.447214 -0.894427 -0
f 19/11/30 23/12/30 27/9/30 18/10/30 

