# Blender v2.79 (sub 0) OBJ File: ''
# www.blender.org
mtllib CurvedWall.mtl
o Cylinder_Cylinder.003
v 69.570953 -30.000000 -57.095390
v 69.570953 30.000000 -57.095390
v 72.288689 -30.000000 -53.612926
v 72.288689 30.000000 -53.612926
v 74.832275 -30.000000 -50.001312
v 74.832275 30.000000 -50.001312
v 77.195587 -30.000000 -46.269234
v 77.195587 30.000000 -46.269234
v 79.372925 -30.000000 -42.425690
v 79.372925 30.000000 -42.425690
v 81.359047 -30.000000 -38.479942
v 81.359047 30.000000 -38.479942
v 83.149170 -30.000000 -34.441490
v 83.149170 30.000000 -34.441490
v 84.738976 -30.000000 -30.320063
v 84.738976 30.000000 -30.320063
v 86.124634 -30.000000 -26.125595
v 86.124634 30.000000 -26.125595
v 87.302818 -30.000000 -21.868189
v 87.302818 30.000000 -21.868189
v 88.270683 -30.000000 -17.558102
v 88.270683 30.000000 -17.558102
v 89.025894 -30.000000 -13.205712
v 89.025894 30.000000 -13.205712
v 89.566628 -30.000000 -8.821510
v 89.566628 30.000000 -8.821510
v 89.891594 -30.000000 -4.416056
v 89.891594 30.000000 -4.416056
v 90.000000 -30.000000 0.000036
v 90.000000 30.000000 0.000036
v 68.797943 -30.000000 -56.460995
v 68.797943 30.000000 -56.460995
v 71.485481 -30.000000 -53.017227
v 71.485481 30.000000 -53.017227
v 74.000801 -30.000000 -49.445740
v 74.000801 30.000000 -49.445740
v 76.337852 -30.000000 -45.755131
v 76.337852 30.000000 -45.755131
v 78.490997 -30.000000 -41.954292
v 78.490997 30.000000 -41.954292
v 80.455055 -30.000000 -38.052387
v 80.455055 30.000000 -38.052387
v 82.225288 -30.000000 -34.058807
v 82.225288 30.000000 -34.058807
v 83.797432 -30.000000 -29.983171
v 83.797432 30.000000 -29.983171
v 85.167694 -30.000000 -25.835310
v 85.167694 30.000000 -25.835310
v 86.332787 -30.000000 -21.625208
v 86.332787 30.000000 -21.625208
v 87.289894 -30.000000 -17.363010
v 87.289894 30.000000 -17.363010
v 88.036713 -30.000000 -13.058982
v 88.036713 30.000000 -13.058982
v 88.571442 -30.000000 -8.723494
v 88.571442 30.000000 -8.723494
v 88.892799 -30.000000 -4.366989
v 88.892799 30.000000 -4.366989
v 89.000000 -30.000000 0.000036
v 89.000000 30.000000 0.000036
vn 0.7883 0.0000 -0.6152
vn 0.8176 0.0000 -0.5758
vn 0.8449 0.0000 -0.5350
vn 0.8701 0.0000 -0.4929
vn 0.8932 0.0000 -0.4496
vn 0.9142 0.0000 -0.4052
vn 0.9330 0.0000 -0.3599
vn 0.9495 0.0000 -0.3137
vn 0.9638 0.0000 -0.2667
vn 0.9757 0.0000 -0.2191
vn 0.9853 0.0000 -0.1710
vn 0.9925 0.0000 -0.1224
vn 0.9973 0.0000 -0.0736
vn 0.9997 0.0000 -0.0245
vn -0.6344 0.0000 -0.7730
vn -0.0000 0.0000 1.0000
vn -0.7883 0.0000 0.6152
vn -0.8176 0.0000 0.5758
vn -0.8449 0.0000 0.5350
vn -0.8701 0.0000 0.4929
vn -0.8932 0.0000 0.4496
vn -0.9142 0.0000 0.4052
vn -0.9330 0.0000 0.3599
vn -0.9495 0.0000 0.3137
vn -0.9638 0.0000 0.2667
vn -0.9757 0.0000 0.2191
vn -0.9853 0.0000 0.1710
vn -0.9925 0.0000 0.1224
vn -0.9973 0.0000 0.0736
vn -0.9997 0.0000 0.0245
vn 0.0000 -1.0000 0.0000
vn 0.0000 1.0000 0.0000
usemtl None
s off
f 1//1 2//1 4//1 3//1
f 3//2 4//2 6//2 5//2
f 5//3 6//3 8//3 7//3
f 7//4 8//4 10//4 9//4
f 9//5 10//5 12//5 11//5
f 11//6 12//6 14//6 13//6
f 13//7 14//7 16//7 15//7
f 15//8 16//8 18//8 17//8
f 17//9 18//9 20//9 19//9
f 19//10 20//10 22//10 21//10
f 21//11 22//11 24//11 23//11
f 23//12 24//12 26//12 25//12
f 25//13 26//13 28//13 27//13
f 27//14 28//14 30//14 29//14
f 1//15 31//15 32//15 2//15
f 29//16 30//16 60//16 59//16
f 31//17 33//17 34//17 32//17
f 33//18 35//18 36//18 34//18
f 35//19 37//19 38//19 36//19
f 37//20 39//20 40//20 38//20
f 39//21 41//21 42//21 40//21
f 41//22 43//22 44//22 42//22
f 43//23 45//23 46//23 44//23
f 45//24 47//24 48//24 46//24
f 47//25 49//25 50//25 48//25
f 49//26 51//26 52//26 50//26
f 51//27 53//27 54//27 52//27
f 53//28 55//28 56//28 54//28
f 55//29 57//29 58//29 56//29
f 57//30 59//30 60//30 58//30
f 3//31 33//31 31//31 1//31
f 2//32 32//32 34//32 4//32
f 5//31 35//31 33//31 3//31
f 4//32 34//32 36//32 6//32
f 7//31 37//31 35//31 5//31
f 6//32 36//32 38//32 8//32
f 9//31 39//31 37//31 7//31
f 8//32 38//32 40//32 10//32
f 11//31 41//31 39//31 9//31
f 10//32 40//32 42//32 12//32
f 13//31 43//31 41//31 11//31
f 12//32 42//32 44//32 14//32
f 15//31 45//31 43//31 13//31
f 14//32 44//32 46//32 16//32
f 17//31 47//31 45//31 15//31
f 16//32 46//32 48//32 18//32
f 19//31 49//31 47//31 17//31
f 18//32 48//32 50//32 20//32
f 21//31 51//31 49//31 19//31
f 20//32 50//32 52//32 22//32
f 23//31 53//31 51//31 21//31
f 22//32 52//32 54//32 24//32
f 25//31 55//31 53//31 23//31
f 24//32 54//32 56//32 26//32
f 27//31 57//31 55//31 25//31
f 26//32 56//32 58//32 28//32
f 29//31 59//31 57//31 27//31
f 28//32 58//32 60//32 30//32
