# Alias OBJ Model File
# Exported from SketchUp, (c) 2000-2012 Trimble Navigation Limited
# File units = meters

mtllib InvBlock.mtl

g Mesh1 Model

usemtl FrontColor
v 0.5 -0.5 -0.5
vt 19.685 -19.685
vn 0 0 1
v 0.45 -0.45 -0.5
vt 17.7165 -17.7165
v -0.5 -0.5 -0.5
vt -19.685 -19.685
f 1/1/1 2/2/1 3/3/1

v 0.5 0.5 -0.5
vt 19.685 19.685
f 2/2/1 1/1/1 4/4/1

vn -1 0 -0
v 0.5 -0.45 -0.45
vt -17.7165 -17.7165
vt -19.685 19.685
f 1/3/2 5/5/2 4/6/2

v 0.5 -0.45 0.45
f 1/3/2 6/2/2 5/5/2

v 0.5 -0.5 0.5
f 7/1/2 6/2/2 1/3/2

v 0.5 0.45 0.45
vt 17.7165 17.7165
f 6/2/2 7/1/2 8/7/2

v 0.5 0.5 0.5
f 9/4/2 8/7/2 7/1/2

f 8/7/2 9/4/2 4/6/2

vn 0 -1 -0
v 0.45 0.5 0.45
f 9/3/3 10/5/3 4/6/3

v -0.45 0.5 0.45
f 9/3/3 11/2/3 10/5/3

v -0.5 0.5 0.5
f 12/1/3 11/2/3 9/3/3

v -0.45 0.5 -0.45
f 11/2/3 12/1/3 13/7/3

v -0.5 0.5 -0.5
f 14/4/3 13/7/3 12/1/3

f 13/7/3 14/4/3 4/6/3

v -0.45 0.45 -0.5
vt -17.7165 17.7165
f 14/6/1 15/8/1 4/4/1

v -0.45 -0.45 -0.5
f 14/6/1 16/5/1 15/8/1

f 3/3/1 16/5/1 14/6/1

f 16/5/1 3/3/1 2/2/1

v -0.35 -0.35 -0.45
vt -13.7795 -20.2479
vn 0 -0.447214 0.894427
vt -17.7165 -24.6496
vt 17.7165 -24.6496
v 0.35 -0.35 -0.45
vt 13.7795 -20.2479
f 17/9/4 16/10/4 2/11/4 18/12/4 

vt -24.6496 -17.7165
vn -0.447214 0 0.894427
vt -20.2479 -13.7795
v -0.35 0.35 -0.45
vt -20.2479 13.7795
vt -24.6496 17.7165
f 16/13/5 17/14/5 19/15/5 15/16/5 

vt -17.7165 -13.7795
v -0.35 -0.35 -0.35
vt -13.7795 -13.7795
v -0.35 0.35 -0.35
vt -13.7795 13.7795
vt -17.7165 13.7795
f 17/17/2 20/18/2 21/19/2 19/20/2 

vt -13.7795 17.7165
v 0.35 -0.35 -0.35
vt 13.7795 13.7795
vt 13.7795 17.7165
f 18/21/3 22/19/3 20/22/3 17/23/3 

v 0.35 0.35 -0.45
vt 17.7165 13.7795
vn 1 0 -0
v 0.35 0.35 -0.35
vt 13.7795 -13.7795
vt 17.7165 -13.7795
f 23/24/6 24/22/6 22/25/6 18/26/6 

vn 0 1 -0
f 19/21/7 21/19/7 24/22/7 23/23/7 

v 0.35 0.45 -0.35
vn 0 0 -1
v -0.35 0.45 -0.35
f 25/21/8 24/19/8 21/22/8 26/23/8 

v 0.35 0.45 0.35
v 0.35 0.35 0.35
f 27/21/6 28/19/6 24/22/6 25/23/6 

v -0.35 0.45 0.35
v -0.35 0.35 0.35
f 29/21/1 30/19/1 28/22/1 27/23/1 

f 26/21/2 21/19/2 30/22/2 29/23/2 

v -0.45 0.35 0.35
v -0.45 0.35 -0.35
f 31/17/7 30/18/7 21/19/7 32/20/7 

v -0.45 -0.35 0.35
v -0.35 -0.35 0.35
f 33/17/1 34/18/1 30/19/1 31/20/1 

v -0.45 -0.35 -0.35
f 35/24/3 20/22/3 34/25/3 33/26/3 

f 32/24/8 21/22/8 20/25/8 35/26/8 

v -0.5 0.45 -0.45
vt 24.6496 17.7165
vn 0.894427 0 -0.447214
vt 20.2479 13.7795
vt 20.2479 -13.7795
v -0.5 -0.45 -0.45
vt 24.6496 -17.7165
f 36/27/9 32/28/9 35/29/9 37/30/9 

v -0.5 0.45 0.45
vt -17.7165 24.6496
vn 0.894427 0.447214 -0
vt -13.7795 20.2479
vt 13.7795 20.2479
vt 17.7165 24.6496
f 38/31/10 31/32/10 32/33/10 36/34/10 

vn 0.894427 0 0.447214
v -0.5 -0.45 0.45
f 31/15/11 38/16/11 39/13/11 33/14/11 

f 38/8/6 12/6/6 39/5/6

f 12/6/6 38/8/6 14/4/6

f 14/4/6 38/8/6 36/7/6

f 14/4/6 36/7/6 3/1/6

f 37/2/6 3/1/6 36/7/6

f 39/5/6 3/1/6 37/2/6

v -0.5 -0.5 0.5
f 39/5/6 40/3/6 3/1/6

f 40/3/6 39/5/6 12/6/6

v -0.45 -0.45 0.5
f 41/2/8 40/1/8 12/4/8

f 40/1/8 41/2/8 7/3/8

v 0.45 -0.45 0.5
f 42/5/8 7/3/8 41/2/8

f 7/3/8 42/5/8 9/6/8

v 0.45 0.45 0.5
f 9/6/8 42/5/8 43/8/8

vt -24.8722 -17.7165
vn 0.468294 0 -0.883573
v 0.35 -0.35 0.447
vt -20.4164 -13.7795
v 0.35 0.35 0.447
vt -20.4164 13.7795
vt -24.8722 17.7165
f 42/35/12 44/36/12 45/37/12 43/38/12 

vt -13.7795 -20.4164
vn 0 -0.468294 -0.883573
vt -17.7165 -24.8722
vt 17.7165 -24.8722
v -0.35 -0.35 0.447
vt 13.7795 -20.4164
f 44/39/13 42/40/13 41/41/13 46/42/13 

v -0.45 0.45 0.5
vt 24.8722 17.7165
vn -0.468294 0 -0.883573
v -0.35 0.35 0.447
vt 20.4164 13.7795
vt 20.4164 -13.7795
vt 24.8722 -17.7165
f 47/43/14 48/44/14 46/45/14 41/46/14 

vt -17.7165 24.8722
vn 0 0.468294 -0.883573
vt -13.7795 20.4164
vt 13.7795 20.4164
vt 17.7165 24.8722
f 43/47/15 45/48/15 48/49/15 47/50/15 

vt 13.7795 -17.5984
vt -13.7795 -17.5984
f 45/51/7 28/25/7 30/18/7 48/52/7 

vt -17.5984 -13.7795
v 0.35 -0.35 0.35
vt -17.5984 13.7795
f 44/53/6 49/18/6 28/19/6 45/54/6 

f 46/51/3 34/25/3 49/18/3 44/52/3 

vt 17.5984 13.7795
vt 17.5984 -13.7795
f 48/55/2 30/22/2 34/25/2 46/56/2 

v 0.35 -0.45 0.35
vt 13.7795 -17.7165
v -0.35 -0.45 0.35
vt -13.7795 -17.7165
f 50/57/1 49/25/1 34/18/1 51/58/1 

v 0.35 -0.45 -0.35
f 52/57/6 22/25/6 49/18/6 50/58/6 

v -0.35 -0.45 -0.35
f 53/57/8 20/25/8 22/18/8 52/58/8 

f 51/57/2 34/25/2 20/18/2 53/58/2 

vn -0.447214 0.894427 -0
v -0.45 -0.5 -0.45
v -0.45 -0.5 0.45
f 53/9/16 54/10/16 55/11/16 51/12/16 

vn 0 0.894427 -0.447214
v 0.45 -0.5 -0.45
f 52/9/17 56/10/17 54/11/17 53/12/17 

vn 0.447214 0.894427 -0
v 0.45 -0.5 0.45
f 56/11/18 52/12/18 50/9/18 57/10/18 

vn 0 0.894427 0.447214
f 51/9/19 55/10/19 57/11/19 50/12/19 

f 55/5/7 7/1/7 57/2/7

f 55/5/7 40/3/7 7/1/7

f 40/3/7 55/5/7 3/6/7

f 54/8/7 3/6/7 55/5/7

f 3/6/7 54/8/7 1/4/7

f 1/4/7 54/8/7 56/7/7

f 1/4/7 56/7/7 7/1/7

f 57/2/7 7/1/7 56/7/7

v 0.45 -0.35 0.35
v 0.45 -0.35 -0.35
f 58/17/3 49/18/3 22/19/3 59/20/3 

v 0.45 0.35 0.35
f 60/24/1 28/22/1 49/25/1 58/26/1 

v 0.45 0.35 -0.35
f 61/24/7 24/22/7 28/25/7 60/26/7 

f 59/17/8 22/18/8 24/19/8 61/20/8 

vn -0.894427 0 -0.447214
v 0.5 0.45 -0.45
f 5/13/20 59/14/20 61/15/20 62/16/20 

vn -0.894427 -0.447214 -0
f 59/9/21 5/10/21 6/11/21 58/12/21 

vn -0.894427 0 0.447214
f 58/29/22 6/30/22 8/27/22 60/28/22 

vn -0.894427 0.447214 -0
f 60/33/23 8/34/23 62/31/23 61/32/23 

f 8/7/2 4/6/2 62/8/2

f 62/8/2 4/6/2 5/5/2

f 47/7/8 12/4/8 43/8/8

f 41/2/8 12/4/8 47/7/8

f 9/6/8 43/8/8 12/4/8

vn 0.894427 -0.447214 -0
f 33/9/24 39/10/24 37/11/24 35/12/24 

vn -0.447214 -0.894427 -0
f 13/31/25 26/32/25 29/33/25 11/34/25 

v 0.45 0.5 -0.45
vn 0 -0.894427 -0.447214
f 63/31/26 25/32/26 26/33/26 13/34/26 

vn 0.447214 -0.894427 -0
f 10/31/27 27/32/27 25/33/27 63/34/27 

vn 0 -0.894427 0.447214
f 27/33/28 10/34/28 11/31/28 29/32/28 

f 63/8/3 4/6/3 10/5/3

f 13/7/3 4/6/3 63/8/3

vn 0 0.447214 0.894427
v 0.45 0.45 -0.5
f 23/33/29 64/34/29 15/31/29 19/32/29 

vn 0.447214 0 0.894427
f 18/29/30 2/30/30 64/27/30 23/28/30 

f 2/2/1 4/4/1 64/7/1

f 64/7/1 4/4/1 15/8/1

