# Blender v2.79 (sub 0) OBJ File: 'ProjectorBox.blend'
# www.blender.org
mtllib ProjectorBox.mtl
o Cube_Cube.002
v -0.882207 -0.962132 1.363604
v -0.882207 -1.363604 0.962132
v -0.882207 1.363604 0.962132
v -0.882207 0.962132 1.363604
v -0.882207 -1.363604 -0.962132
v -0.882207 -0.962132 -1.363604
v -0.882207 0.962132 -1.363604
v -0.882207 1.363604 -0.962132
v -6.176141 -1.145854 0.239899
v -4.721996 -1.363604 0.962132
v -6.176141 -0.506723 1.035333
v -4.721996 -0.962132 1.363604
v -6.176141 0.506723 1.035333
v -4.721996 0.962132 1.363604
v -6.176141 1.145854 0.239899
v -4.721996 1.363604 0.962132
v -6.176141 -0.239899 -1.145854
v -4.721996 -0.962132 -1.363604
v -6.176141 -1.035333 -0.506723
v -4.721996 -1.363604 -0.962132
v -6.176141 1.145854 -0.239899
v -4.721996 1.363604 -0.962132
v -6.176141 0.506723 -1.035333
v -4.721996 0.962132 -1.363604
v 0.467793 1.000000 -0.335786
v 0.467793 0.335786 -1.000000
v -5.428062 1.893934 -0.549764
v -5.428062 0.816588 -1.783412
v 0.467793 0.335786 1.000000
v 0.467793 1.000000 0.335786
v -5.428062 0.816588 1.783412
v -5.428062 1.893934 0.549764
v 0.467793 -1.000000 0.335786
v 0.467793 -0.335786 1.000000
v -5.428062 -1.893934 0.549764
v -5.428062 -0.816588 1.783412
v 0.467793 -0.335786 -1.000000
v 0.467793 -1.000000 -0.335786
v -5.428062 -0.549764 -1.893934
v -5.428062 -1.783412 -0.816588
v -0.482208 1.858579 -0.891421
v -0.482208 0.891421 -1.858579
v -5.121996 1.858579 -0.891421
v -5.121996 0.891421 -1.858579
v -0.482208 0.891421 1.858579
v -0.482208 1.858579 0.891421
v -5.121996 0.891421 1.858579
v -5.121996 1.858579 0.891421
v -0.482208 -1.858579 0.891421
v -0.482208 -0.891421 1.858579
v -5.121996 -1.858579 0.891421
v -5.121996 -0.891421 1.858579
v -0.482208 -0.891421 -1.858579
v -0.482208 -1.858579 -0.891421
v -5.121996 -0.891421 -1.858579
v -5.121996 -1.858579 -0.891421
v -6.176141 1.035333 -0.506723
v -5.428062 1.783412 -0.816588
v -5.428062 1.783412 0.816588
v -6.176141 1.035333 0.506723
v -5.428062 0.549764 -1.893934
v -6.176141 0.239899 -1.145854
v -5.532207 0.389789 -0.083028
v -5.321996 2.000000 -0.750000
v -5.321996 2.000000 0.750000
v -5.532207 0.389789 0.083028
v -6.176141 0.239899 1.145854
v -5.428062 0.549764 1.893934
v -6.176141 -0.506723 -1.035333
v -5.428062 -0.816588 -1.783412
v -5.321996 0.750000 -2.000000
v -5.532207 0.083028 -0.389789
v -5.428062 -1.893934 -0.549764
v -6.176141 -1.145854 -0.239899
v -5.532207 -0.083028 -0.389789
v -5.321996 -0.750000 -2.000000
v -5.321996 -2.000000 -0.750000
v -5.532207 -0.389789 -0.083028
v -6.176141 -1.035333 0.506723
v -5.428062 -1.783412 0.816588
v -5.428062 -0.549764 1.893934
v -6.176141 -0.239899 1.145854
v -5.532207 -0.389789 0.083028
v -5.321996 -2.000000 0.750000
v -5.321996 -0.750000 2.000000
v -5.532207 -0.083028 0.389789
v -5.532207 0.083028 0.389789
v -5.321996 0.750000 2.000000
v -5.999364 0.969078 -0.239899
v -5.251286 1.717157 -0.549764
v -5.251286 1.717157 0.549764
v -5.999364 0.969078 0.239899
v -5.251286 0.691588 -1.658412
v -5.999364 0.381723 -0.910333
v -5.999364 0.910333 -0.381723
v -5.251286 1.658412 -0.691588
v -5.999364 -0.239899 -0.969078
v -5.251286 -0.549764 -1.717157
v -5.251286 0.549764 -1.717157
v -5.999364 0.239899 -0.969078
v -5.251286 -1.658412 -0.691588
v -5.999364 -0.910333 -0.381723
v -5.999364 -0.381723 -0.910333
v -5.251286 -0.691588 -1.658412
v -5.251286 1.658412 0.691588
v -5.999364 0.910333 0.381723
v -5.999364 0.381723 0.910333
v -5.251286 0.691588 1.658412
v -5.251286 -0.549764 1.717157
v -5.999364 -0.239899 0.969078
v -5.999364 0.239899 0.969078
v -5.251286 0.549764 1.717157
v -5.251286 -0.691588 1.658412
v -5.999364 -0.381723 0.910333
v -5.999364 -0.910333 0.381723
v -5.251286 -1.658412 0.691588
v -5.251286 -1.717157 -0.549764
v -5.999364 -0.969078 -0.239899
v -5.999364 -0.969078 0.239899
v -5.251286 -1.717157 0.549764
v -6.282207 -1.039788 -0.352267
v -6.282207 -0.352267 -1.039788
v -6.282207 0.352267 -1.039788
v -6.282207 1.039788 -0.352267
v -6.282207 -0.352267 1.039788
v -6.282207 -1.039788 0.352267
v -6.282207 1.039788 0.352267
v -6.282207 0.352267 1.039788
v -6.282207 -0.789788 -0.248714
v -6.282207 -0.248714 -0.789788
v -6.282207 0.248714 -0.789788
v -6.282207 0.789788 -0.248714
v -6.282207 -0.248714 0.789788
v -6.282207 -0.789788 0.248714
v -6.282207 0.789788 0.248714
v -6.282207 0.248714 0.789788
v -0.282207 -0.750000 -2.000000
v -0.282207 -2.000000 -0.750000
v -0.282207 2.000000 -0.750000
v -0.282207 0.750000 -2.000000
v -0.282207 -2.000000 0.750000
v -0.282207 -0.750000 2.000000
v -0.282207 0.750000 2.000000
v -0.282207 2.000000 0.750000
vn 0.0000 0.7071 0.7071
vn 1.0000 0.0000 0.0000
vn 0.0000 -0.7071 -0.7071
vn 0.0000 0.0000 1.0000
vn 0.0000 0.7071 -0.7071
vn 0.0000 0.0000 -1.0000
vn 0.0000 -1.0000 0.0000
vn 0.0000 1.0000 0.0000
vn -1.0000 0.0000 0.0000
vn 0.1988 -0.8191 0.5381
vn 0.7071 0.5000 -0.5000
vn -0.7071 0.5000 -0.5000
vn 0.1988 0.8191 -0.5381
vn 0.7071 -0.7071 0.0000
vn -0.7071 0.0000 -0.7071
vn 0.7071 0.7071 0.0000
vn 0.7071 0.0000 -0.7071
vn 0.0000 -0.7071 0.7071
vn -0.6000 0.5657 -0.5657
vn 0.6000 0.5657 -0.5657
vn 0.0000 0.1414 -0.9899
vn 0.0000 0.9899 -0.1414
vn -0.6000 0.5657 0.5657
vn 0.6000 0.5657 0.5657
vn 0.0000 0.9899 0.1414
vn 0.0000 0.1414 0.9899
vn -0.6000 -0.5657 0.5657
vn 0.6000 -0.5657 0.5657
vn 0.0000 -0.1414 0.9899
vn 0.0000 -0.9899 0.1414
vn -0.6000 -0.5657 -0.5657
vn 0.6000 -0.5657 -0.5657
vn 0.0000 -0.1414 -0.9899
vn 0.0000 -0.9899 -0.1414
vn -0.7071 0.7071 0.0000
vn -0.7071 0.5000 0.5000
vn -0.7071 -0.5000 -0.5000
vn -0.7071 -0.7071 0.0000
vn -0.7071 -0.5000 0.5000
vn -0.7071 -0.0000 0.7071
vn 0.1988 0.1988 -0.9597
vn 0.1988 0.1988 0.9597
vn 0.1988 -0.5381 -0.8191
vn 0.1988 0.8191 0.5381
vn 0.1988 -0.9597 -0.1988
vn 0.1988 0.9597 -0.1988
vn 0.1988 0.5381 -0.8191
vn 0.7071 -0.5000 -0.5000
vn 0.1988 -0.5381 0.8191
vn 0.7071 0.5000 0.5000
vn 0.1988 0.9597 0.1988
vn 0.7071 0.0000 0.7071
vn 0.1988 -0.9597 0.1988
vn 0.7071 -0.5000 0.5000
vn 0.1988 0.5381 0.8191
vn 0.1988 -0.8191 -0.5381
vn 0.1988 -0.1988 0.9597
vn 0.1988 -0.1988 -0.9597
vn -0.4706 0.6239 0.6239
vn -0.4706 -0.6239 0.6239
vn -0.4706 0.6239 -0.6239
vn -0.4706 -0.6239 -0.6239
vn -0.4706 0.8824 0.0000
vn -0.4706 0.0000 -0.8824
vn -0.4706 -0.8824 0.0000
vn -0.4706 0.0000 0.8824
vn 0.8000 -0.4243 -0.4243
vn 0.8000 0.4243 -0.4243
vn 0.8000 -0.4243 0.4243
vn 0.8000 0.4243 0.4243
vn 0.8000 -0.6000 0.0000
vn 0.8000 0.0000 0.6000
vn 0.8000 0.6000 0.0000
vn 0.8000 0.0000 -0.6000
usemtl None
s off
f 3//1 16//1 14//1 4//1
f 38//2 37//2 26//2 25//2 30//2 29//2 34//2 33//2
f 5//3 20//3 18//3 6//3
f 142//4 143//4 88//4 85//4
f 22//5 8//5 7//5 24//5
f 76//6 71//6 140//6 137//6
f 77//7 138//7 141//7 84//7
f 139//8 64//8 65//8 144//8
f 83//9 86//9 87//9 66//9 63//9 72//9 75//9 78//9
f 69//10 70//10 104//10 103//10
f 23//11 57//11 95//11 94//11
f 80//12 36//12 113//12 116//12
f 13//13 31//13 108//13 107//13
f 9//14 74//14 118//14 119//14
f 81//15 68//15 112//15 109//15
f 21//16 15//16 92//16 89//16
f 17//17 62//17 100//17 97//17
f 10//18 2//18 1//18 12//18
f 42//5 41//5 139//5 140//5
f 43//5 44//5 71//5 64//5
f 41//5 43//5 64//5 139//5
f 44//5 42//5 140//5 71//5
f 46//1 45//1 143//1 144//1
f 47//1 48//1 65//1 88//1
f 45//1 47//1 88//1 143//1
f 48//1 46//1 144//1 65//1
f 50//18 49//18 141//18 142//18
f 51//18 52//18 85//18 84//18
f 49//18 51//18 84//18 141//18
f 52//18 50//18 142//18 85//18
f 54//3 53//3 137//3 138//3
f 55//3 56//3 77//3 76//3
f 56//3 54//3 138//3 77//3
f 53//3 55//3 76//3 137//3
f 7//19 8//19 41//19 42//19
f 22//20 24//20 44//20 43//20
f 8//21 22//21 43//21 41//21
f 24//22 7//22 42//22 44//22
f 3//23 4//23 45//23 46//23
f 14//24 16//24 48//24 47//24
f 4//25 14//25 47//25 45//25
f 16//26 3//26 46//26 48//26
f 1//27 2//27 49//27 50//27
f 10//28 12//28 52//28 51//28
f 2//29 10//29 51//29 49//29
f 12//30 1//30 50//30 52//30
f 5//31 6//31 53//31 54//31
f 18//32 20//32 56//32 55//32
f 20//33 5//33 54//33 56//33
f 6//34 18//34 55//34 53//34
f 21//35 27//35 64//35 124//35
f 32//35 15//35 127//35 65//35
f 27//35 32//35 65//35 64//35
f 15//35 21//35 124//35 127//35
f 23//12 28//12 71//12 123//12
f 57//12 23//12 123//12 124//12
f 58//12 57//12 124//12 64//12
f 28//12 58//12 64//12 71//12
f 60//36 59//36 65//36 127//36
f 13//36 60//36 127//36 128//36
f 31//36 13//36 128//36 88//36
f 59//36 31//36 88//36 65//36
f 17//15 39//15 76//15 122//15
f 61//15 62//15 123//15 71//15
f 39//15 61//15 71//15 76//15
f 62//15 17//15 122//15 123//15
f 19//37 40//37 77//37 121//37
f 69//37 19//37 121//37 122//37
f 70//37 69//37 122//37 76//37
f 40//37 70//37 76//37 77//37
f 73//38 74//38 121//38 77//38
f 9//38 35//38 84//38 126//38
f 74//38 9//38 126//38 121//38
f 35//38 73//38 77//38 84//38
f 11//39 36//39 85//39 125//39
f 79//39 11//39 125//39 126//39
f 80//39 79//39 126//39 84//39
f 36//39 80//39 84//39 85//39
f 81//40 82//40 125//40 85//40
f 67//40 68//40 88//40 128//40
f 68//40 81//40 85//40 88//40
f 82//40 67//40 128//40 125//40
f 91//35 90//35 89//35 92//35
f 15//41 32//41 91//41 92//41
f 32//38 27//38 90//38 91//38
f 27//42 21//42 89//42 90//42
f 94//12 95//12 96//12 93//12
f 57//43 58//43 96//43 95//43
f 28//44 23//44 94//44 93//44
f 58//39 28//39 93//39 96//39
f 99//15 98//15 97//15 100//15
f 62//45 61//45 99//45 100//45
f 61//40 39//40 98//40 99//40
f 39//46 17//46 97//46 98//46
f 102//37 103//37 104//37 101//37
f 40//47 19//47 102//47 101//47
f 70//36 40//36 101//36 104//36
f 19//48 69//48 103//48 102//48
f 106//36 107//36 108//36 105//36
f 59//49 60//49 106//49 105//49
f 31//37 59//37 105//37 108//37
f 60//50 13//50 107//50 106//50
f 109//40 112//40 111//40 110//40
f 82//51 81//51 109//51 110//51
f 67//52 82//52 110//52 111//52
f 68//53 67//53 111//53 112//53
f 114//39 115//39 116//39 113//39
f 11//54 79//54 115//54 114//54
f 79//55 80//55 116//55 115//55
f 36//56 11//56 114//56 113//56
f 119//38 118//38 117//38 120//38
f 74//57 73//57 117//57 118//57
f 73//35 35//35 120//35 117//35
f 35//58 9//58 119//58 120//58
f 129//9 130//9 122//9 121//9
f 131//9 132//9 124//9 123//9
f 133//9 134//9 126//9 125//9
f 135//9 136//9 128//9 127//9
f 134//9 129//9 121//9 126//9
f 136//9 133//9 125//9 128//9
f 132//9 135//9 127//9 124//9
f 130//9 131//9 123//9 122//9
f 78//59 75//59 130//59 129//59
f 72//60 63//60 132//60 131//60
f 86//61 83//61 134//61 133//61
f 66//62 87//62 136//62 135//62
f 83//63 78//63 129//63 134//63
f 87//64 86//64 133//64 136//64
f 63//65 66//65 135//65 132//65
f 75//66 72//66 131//66 130//66
f 37//67 38//67 138//67 137//67
f 25//68 26//68 140//68 139//68
f 33//69 34//69 142//69 141//69
f 29//70 30//70 144//70 143//70
f 38//71 33//71 141//71 138//71
f 34//72 29//72 143//72 142//72
f 30//73 25//73 139//73 144//73
f 26//74 37//74 137//74 140//74
