# Alias OBJ Model File
# Exported from SketchUp, (c) 2000-2012 Trimble Navigation Limited
# File units = meters

mtllib StaircaseLarge.mtl

g Mesh1 Model

usemtl FrontColor
v 9.5 0 -2.5
vt -374.016 -5.19243e-15
vn 2.20811e-16 5.27551e-17 -1
v 0 0 -2.5
vt 2.17334e-14 -5.19243e-15
v 0 9.5 -2.5
vt 2.17334e-14 374.016
v 0.5 9.5 -2.5
vt -19.685 374.016
v 0.5 9 -2.5
vt -19.685 354.331
v 1 9 -2.5
vt -39.3701 354.331
v 1 8.5 -2.5
vt -39.3701 334.646
v 1.5 8.5 -2.5
vt -59.0551 334.646
v 1.5 8 -2.5
vt -59.0551 314.961
v 2 8 -2.5
vt -78.7402 314.961
v 2 7.5 -2.5
vt -78.7402 295.276
v 2.5 7.5 -2.5
vt -98.4252 295.276
v 2.5 7 -2.5
vt -98.4252 275.591
v 3 7 -2.5
vt -118.11 275.591
v 3 6.5 -2.5
vt -118.11 255.906
v 3.5 6.5 -2.5
vt -137.795 255.906
v 3.5 6 -2.5
vt -137.795 236.22
v 4 6 -2.5
vt -157.48 236.22
v 4 5.5 -2.5
vt -157.48 216.535
v 4.5 5.5 -2.5
vt -177.165 216.535
v 4.5 5 -2.5
vt -177.165 196.85
v 5 5 -2.5
vt -196.85 196.85
v 5 4.5 -2.5
vt -196.85 177.165
v 5.5 4.5 -2.5
vt -216.535 177.165
v 5.5 4 -2.5
vt -216.535 157.48
v 6 4 -2.5
vt -236.22 157.48
v 6 3.5 -2.5
vt -236.22 137.795
v 6.5 3.5 -2.5
vt -255.906 137.795
v 6.5 3 -2.5
vt -255.906 118.11
v 7 3 -2.5
vt -275.591 118.11
v 7 2.5 -2.5
vt -275.591 98.4252
v 7.5 2.5 -2.5
vt -295.276 98.4252
v 7.5 2 -2.5
vt -295.276 78.7402
v 8 2 -2.5
vt -314.961 78.7402
v 8 1.5 -2.5
vt -314.961 59.0551
v 8.5 1.5 -2.5
vt -334.646 59.0551
v 8.5 1 -2.5
vt -334.646 39.3701
v 9 1 -2.5
vt -354.331 39.3701
v 9 0.5 -2.5
vt -354.331 19.685
v 9.5 0.5 -2.5
vt -374.016 19.685
f 1/1/1 2/2/1 3/3/1 4/4/1 5/5/1 6/6/1 7/7/1 8/8/1 9/9/1 10/10/1 11/11/1 12/12/1 13/13/1 14/14/1 15/15/1 16/16/1 17/17/1 18/18/1 19/19/1 20/20/1 21/21/1 22/22/1 23/23/1 24/24/1 25/25/1 26/26/1 27/27/1 28/28/1 29/29/1 30/30/1 31/31/1 32/32/1 33/33/1 34/34/1 35/35/1 36/36/1 37/37/1 38/38/1 39/39/1 40/40/1 

vt 0 98.4252
vn 0 -1 -0
vt -374.016 98.4252
v 9.5 0 2.5
vt -374.016 -98.4252
v 0 0 2.5
vt 0 -98.4252
f 2/41/2 1/42/2 41/43/2 42/44/2 

v 9.5 0.5 2.5
vt -98.4252 19.685
vn 1 -5.77529e-15 -0
vt -98.4252 2.16005e-12
vt 98.4252 2.16005e-12
vt 98.4252 19.685
f 43/45/3 41/46/3 1/47/3 40/48/3 

vt 0 0
vn 0 0 1
vt 374.016 0
vt 374.016 19.685
v 9 0.5 2.5
vt 354.331 19.685
v 9 1 2.5
vt 354.331 39.3701
v 8.5 1 2.5
vt 334.646 39.3701
v 8.5 1.5 2.5
vt 334.646 59.0551
v 8 1.5 2.5
vt 314.961 59.0551
v 8 2 2.5
vt 314.961 78.7402
v 7.5 2 2.5
vt 295.276 78.7402
v 7.5 2.5 2.5
vt 295.276 98.4252
v 7 2.5 2.5
vt 275.591 98.4252
v 7 3 2.5
vt 275.591 118.11
v 6.5 3 2.5
vt 255.906 118.11
v 6.5 3.5 2.5
vt 255.906 137.795
v 6 3.5 2.5
vt 236.22 137.795
v 6 4 2.5
vt 236.22 157.48
v 5.5 4 2.5
vt 216.535 157.48
v 5.5 4.5 2.5
vt 216.535 177.165
v 5 4.5 2.5
vt 196.85 177.165
v 5 5 2.5
vt 196.85 196.85
v 4.5 5 2.5
vt 177.165 196.85
v 4.5 5.5 2.5
vt 177.165 216.535
v 4 5.5 2.5
vt 157.48 216.535
v 4 6 2.5
vt 157.48 236.22
v 3.5 6 2.5
vt 137.795 236.22
v 3.5 6.5 2.5
vt 137.795 255.906
v 3 6.5 2.5
vt 118.11 255.906
v 3 7 2.5
vt 118.11 275.591
v 2.5 7 2.5
vt 98.4252 275.591
v 2.5 7.5 2.5
vt 98.4252 295.276
v 2 7.5 2.5
vt 78.7402 295.276
v 2 8 2.5
vt 78.7402 314.961
v 1.5 8 2.5
vt 59.0551 314.961
v 1.5 8.5 2.5
vt 59.0551 334.646
v 1 8.5 2.5
vt 39.3701 334.646
v 1 9 2.5
vt 39.3701 354.331
v 0.5 9 2.5
vt 19.685 354.331
v 0.5 9.5 2.5
vt 19.685 374.016
v 0 9.5 2.5
vt 0 374.016
f 42/49/4 41/50/4 43/51/4 44/52/4 45/53/4 46/54/4 47/55/4 48/56/4 49/57/4 50/58/4 51/59/4 52/60/4 53/61/4 54/62/4 55/63/4 56/64/4 57/65/4 58/66/4 59/67/4 60/68/4 61/69/4 62/70/4 63/71/4 64/72/4 65/73/4 66/74/4 67/75/4 68/76/4 69/77/4 70/78/4 71/79/4 72/80/4 73/81/4 74/82/4 75/83/4 76/84/4 77/85/4 78/86/4 79/87/4 80/88/4 

vt 354.331 -98.4252
vn -8.30198e-15 1 -0
vt 374.016 -98.4252
vt 374.016 98.4252
vt 354.331 98.4252
f 44/89/5 43/90/5 40/91/5 39/92/5 

vt -98.4252 39.3701
vn 1 0 -0
vt 98.4252 39.3701
f 45/93/6 44/45/6 39/48/6 38/94/6 

vt 334.646 -98.4252
vn -3.60956e-16 1 -0
vt 334.646 98.4252
f 46/95/7 45/89/7 38/92/7 37/96/7 

vt -98.4252 59.0551
vt 98.4252 59.0551
f 47/97/6 46/93/6 37/94/6 36/98/6 

vt 314.961 -98.4252
vn 0 1 -0
vt 314.961 98.4252
f 48/99/8 47/95/8 36/96/8 35/100/8 

vt -98.4252 78.7402
vt 98.4252 78.7402
f 49/101/6 48/97/6 35/98/6 34/102/6 

vt 295.276 -98.4252
f 50/103/8 49/99/8 34/100/8 33/59/8 

vt -98.4252 98.4252
vt 98.4252 98.4252
f 51/104/6 50/101/6 33/102/6 32/105/6 

vt 275.591 -98.4252
vn 1.44382e-15 1 -0
f 52/106/9 51/103/9 32/59/9 31/60/9 

vt -98.4252 118.11
vt 98.4252 118.11
f 53/107/6 52/104/6 31/105/6 30/108/6 

vt 255.906 -98.4252
vn -2.16573e-15 1 -0
vt 255.906 98.4252
f 54/109/10 53/106/10 30/60/10 29/110/10 

vt -98.4252 137.795
vt 98.4252 137.795
f 55/111/6 54/107/6 29/108/6 28/112/6 

vt 236.22 -98.4252
vn 5.77529e-15 1 -0
vt 236.22 98.4252
f 56/113/11 55/109/11 28/110/11 27/114/11 

vt -98.4252 157.48
vt 98.4252 157.48
f 57/115/6 56/111/6 27/112/6 26/116/6 

vt 216.535 -98.4252
vn 2.88765e-15 1 -0
vt 216.535 98.4252
f 58/117/12 57/113/12 26/114/12 25/118/12 

vt -98.4252 177.165
vt 98.4252 177.165
f 59/119/6 58/115/6 25/116/6 24/120/6 

vt 196.85 -98.4252
vn -2.88765e-15 1 -0
vt 196.85 98.4252
f 60/121/13 59/117/13 24/118/13 23/122/13 

vt -98.4252 196.85
vt 98.4252 196.85
f 61/123/6 60/119/6 23/120/6 22/124/6 

vt 177.165 -98.4252
vt 177.165 98.4252
f 62/125/13 61/121/13 22/122/13 21/126/13 

vt -98.4252 216.535
vt 98.4252 216.535
f 63/127/6 62/123/6 21/124/6 20/128/6 

vt 157.48 -98.4252
vt 157.48 98.4252
f 64/129/11 63/125/11 20/126/11 19/130/11 

vt -98.4252 236.22
vt 98.4252 236.22
f 65/131/6 64/127/6 19/128/6 18/132/6 

vt 137.795 -98.4252
vt 137.795 98.4252
f 66/133/11 65/129/11 18/130/11 17/134/11 

vt -98.4252 255.906
vt 98.4252 255.906
f 67/135/6 66/131/6 17/132/6 16/136/6 

vt 118.11 -98.4252
vt 118.11 98.4252
f 68/137/8 67/133/8 16/134/8 15/138/8 

f 69/13/6 68/135/6 15/136/6 14/78/6 

vt 98.4252 -98.4252
f 70/139/13 69/137/13 14/138/13 13/105/13 

f 71/12/6 70/13/6 13/78/6 12/79/6 

vt 78.7402 -98.4252
vt 78.7402 98.4252
f 72/140/11 71/139/11 12/105/11 11/141/11 

vt -98.4252 314.961
vt 98.4252 314.961
f 73/142/6 72/12/6 11/79/6 10/143/6 

vt 59.0551 -98.4252
vn -8.66294e-15 1 -0
vt 59.0551 98.4252
f 74/144/14 73/140/14 10/141/14 9/145/14 

vt -98.4252 334.646
vt 98.4252 334.646
f 75/146/6 74/142/6 9/143/6 8/147/6 

vt 39.3701 -98.4252
vt 39.3701 98.4252
f 76/148/12 75/144/12 8/145/12 7/149/12 

vt -98.4252 354.331
vt 98.4252 354.331
f 77/150/6 76/146/6 7/147/6 6/151/6 

vt 19.685 -98.4252
vt 19.685 98.4252
f 78/152/11 77/148/11 6/149/11 5/153/11 

vt -98.4252 374.016
vt 98.4252 374.016
f 79/154/6 78/150/6 5/151/6 4/155/6 

vt 3.24007e-12 -98.4252
vt 3.24007e-12 98.4252
f 80/156/14 79/152/14 4/153/14 3/157/14 

vn -1 0 -0
vt -98.4252 0
vt 98.4252 0
f 80/155/15 3/154/15 2/158/15 42/159/15 

