# Alias OBJ Model File
# Exported from SketchUp, (c) 2000-2012 Trimble Navigation Limited
# File units = meters

mtllib WallPiece1.mtl

g Mesh1 Model

usemtl FrontColor
v 2.5 -2.5 -0.5
vt 19.685 -98.4252
vn 1 0 -0
v 2.5 -1.5 -0.5
vt 19.685 -59.0551
v 2.5 1.5 -0.5
vt 19.685 59.0551
v 2.5 2.5 -0.5
vt 19.685 98.4252
v 2.5 2.5 0.5
vt -19.685 98.4252
v 2.5 1.5 0.5
vt -19.685 59.0551
v 2.5 -1.5 0.5
vt -19.685 -59.0551
v 2.5 -2.5 0.5
vt -19.685 -98.4252
f 1/1/1 2/2/1 3/3/1 4/4/1 5/5/1 6/6/1 7/7/1 8/8/1 

vt -98.4252 -98.4252
vn 0 0 -1
v 2.3 -2.3 -0.5
vt -90.5512 -90.5512
vt -98.4252 -59.0551
f 1/9/2 9/10/2 2/11/2

v 1.7 -2.3 -0.5
vt -66.9291 -90.5512
f 9/10/2 1/9/2 10/12/2

v 1.5 -2.5 -0.5
vt -59.0551 -98.4252
f 11/13/2 10/12/2 1/9/2

v 1.5 -2 -0.5
vt -59.0551 -78.7402
f 10/12/2 11/13/2 12/14/2

v -1.5 -2 -0.5
vt 59.0551 -78.7402
v -1.5 -2.5 -0.5
vt 59.0551 -98.4252
f 13/15/2 12/14/2 11/13/2 14/16/2 

v 1.5 -1.5 -0.1
vt -59.0551 -48.5737
vn -3.18188e-18 0.624695 -0.780869
vt -59.0551 -73.7829
vt 59.0551 -73.7829
v -1.5 -1.5 -0.1
vt 59.0551 -48.5737
f 15/17/3 12/18/3 13/19/3 16/20/3 

vt -19.685 -78.7402
vn -1 0 -0
vt -3.93701 -59.0551
v 1.5 -1.5 -0.5
f 12/21/4 15/22/4 17/7/4

vt 59.0551 3.93701
vn 0 1 -0
v 2 -1.5 -0.5
vt 78.7402 19.685
vt 59.0551 19.685
f 15/23/5 18/24/5 17/25/5

vt -73.7829 -59.0551
vn -0.624695 0 -0.780869
vt -48.5737 -59.0551
v 1.5 1.5 -0.1
vt -48.5737 59.0551
v 2 1.5 -0.5
vt -73.7829 59.0551
f 18/26/6 15/27/6 19/28/6 20/29/6 

vt -59.0551 -59.0551
v 1 -1.83697e-16 -0.1
vt -39.3701 -7.23217e-15
vt -59.0551 59.0551
f 15/30/2 21/31/2 19/32/2

v -1.22465e-16 -1 -0.1
vt 4.82144e-15 -39.3701
f 21/31/2 15/30/2 22/33/2

vt 59.0551 -59.0551
f 16/34/2 22/33/2 15/30/2

v -1 6.12323e-17 -0.1
vt 39.3701 2.41072e-15
f 22/33/2 16/34/2 23/35/2

v -1.5 1.5 -0.1
vt 59.0551 59.0551
f 23/35/2 16/34/2 24/36/2

v -2 1.5 -0.5
vt 73.7829 59.0551
vn 0.624695 3.18188e-18 -0.780869
vt 48.5737 59.0551
vt 48.5737 -59.0551
v -2 -1.5 -0.5
vt 73.7829 -59.0551
f 25/37/7 24/38/7 16/39/7 26/40/7 

vn 3.60956e-16 -1 5.04344e-32
v -1.5 1.5 -0.5
f 24/23/8 25/24/8 27/25/8

v -2.5 1.5 -0.5
vt 98.4252 59.0551
vt 78.7402 59.0551
f 28/41/2 27/36/2 25/42/2

v -2.3 1.7 -0.5
vt 90.5512 66.9291
f 27/36/2 28/41/2 29/43/2

v -2.5 2.5 -0.5
vt 98.4252 98.4252
f 29/43/2 28/41/2 30/44/2

v -2.5 -1.5 -0.5
v -2.5 -2.5 -0.5
v -2.5 -2.5 0.5
v -2.5 -1.5 0.5
v -2.5 1.5 0.5
v -2.5 2.5 0.5
f 30/5/4 28/6/4 31/7/4 32/8/4 33/1/4 34/2/4 35/3/4 36/4/4 

vt 78.7402 -59.0551
vt 98.4252 -59.0551
f 25/42/2 26/45/2 31/46/2 28/41/2 

v -1.5 -1.5 -0.5
f 37/34/2 31/46/2 26/45/2

v -1.7 -1.7 -0.5
vt 66.9291 -66.9291
f 37/34/2 38/47/2 31/46/2

f 13/15/2 38/47/2 37/34/2

v -1.7 -2.3 -0.5
vt 66.9291 -90.5512
f 13/15/2 39/48/2 38/47/2

f 14/16/2 39/48/2 13/15/2

v -2.3 -2.3 -0.5
vt 90.5512 -90.5512
f 39/48/2 14/16/2 40/49/2

vt 98.4252 -98.4252
f 32/50/2 40/49/2 14/16/2

f 40/49/2 32/50/2 31/46/2

v -2.3 -1.7 -0.5
vt 90.5512 -66.9291
f 40/49/2 31/46/2 41/51/2

f 41/51/2 31/46/2 38/47/2

vt 90.5512 19.685
vn 0 -1 -0
vt 66.9291 19.685
v -1.7 -1.7 -0.25
vt 66.9291 9.84252
v -2.3 -1.7 -0.25
vt 90.5512 9.84252
f 41/52/9 38/53/9 42/54/9 43/55/9 

vt -19.685 -66.9291
vt -19.685 -90.5512
v -1.7 -2.3 -0.25
vt -9.84252 -90.5512
vt -9.84252 -66.9291
f 38/56/4 39/57/4 44/58/4 42/59/4 

vt -66.9291 19.685
vt -90.5512 19.685
v -2.3 -2.3 -0.25
vt -90.5512 9.84252
vt -66.9291 9.84252
f 39/60/5 40/61/5 45/62/5 44/63/5 

vt 19.685 -90.5512
vt 19.685 -66.9291
vt 9.84252 -66.9291
vt 9.84252 -90.5512
f 40/64/1 41/65/1 43/66/1 45/67/1 

f 45/49/2 43/51/2 42/47/2 44/48/2 

vt 98.4252 19.685
vt -59.0551 19.685
vt -98.4252 19.685
vt -98.4252 -19.685
v 1.5 -2.5 0.5
vt -59.0551 -19.685
v -1.5 -2.5 0.5
vt 59.0551 -19.685
vt 98.4252 -19.685
f 32/68/9 14/25/9 11/69/9 1/70/9 8/71/9 46/72/9 47/73/9 33/74/9 

vn 0 0 1
v 2.3 -2.3 0.5
f 8/50/10 48/49/10 46/16/10

f 48/49/10 8/50/10 7/46/10

v 2.3 -1.7 0.5
f 48/49/10 7/46/10 49/51/10

v 1.7 -1.7 0.5
f 49/51/10 7/46/10 50/47/10

v 1.5 -1.5 0.5
f 51/34/10 50/47/10 7/46/10

v 1.5 -2 0.5
f 52/15/10 50/47/10 51/34/10

v 1.7 -2.3 0.5
f 52/15/10 53/48/10 50/47/10

f 46/16/10 53/48/10 52/15/10

f 53/48/10 46/16/10 48/49/10

vt 66.9291 -19.685
vt 90.5512 -19.685
v 2.3 -2.3 0.25
vt 90.5512 -9.84252
v 1.7 -2.3 0.25
vt 66.9291 -9.84252
f 53/75/5 48/76/5 54/77/5 55/78/5 

v 2.3 -1.7 0.25
f 48/64/4 49/65/4 56/66/4 54/67/4 

vt -90.5512 -19.685
vt -66.9291 -19.685
v 1.7 -1.7 0.25
vt -66.9291 -9.84252
vt -90.5512 -9.84252
f 49/79/9 50/80/9 57/81/9 56/82/9 

f 50/56/1 53/57/1 55/58/1 57/59/1 

f 56/51/10 57/47/10 55/48/10 54/49/10 

v -1.5 -2 0.5
f 52/15/10 58/14/10 47/13/10 46/16/10 

vt 59.0551 -71.6957
vn 6.05753e-18 0.668965 0.743294
v 1.5 -1.5 0.05
vt 59.0551 -45.2122
v -1.5 -1.5 0.05
vt -59.0551 -45.2122
vt -59.0551 -71.6957
f 52/83/11 59/84/11 60/85/11 58/86/11 

vt 1.9685 -59.0551
vn -1 3.60956e-16 -0
vt 19.685 -78.7402
f 59/87/12 52/88/12 51/2/12

v 2 -1.5 0.5
vt 78.7402 -19.685
vt 59.0551 -1.9685
f 61/89/5 59/90/5 51/73/5

vt 45.2122 -59.0551
vn -0.668965 6.05753e-18 0.743294
vt 71.6957 -59.0551
v 2 1.5 0.5
vt 71.6957 59.0551
v 1.5 1.5 0.05
vt 45.2122 59.0551
f 59/91/13 61/92/13 62/93/13 63/94/13 

f 62/42/10 61/45/10 7/46/10 6/41/10 

f 51/34/10 7/46/10 61/45/10

v 1.5 1.5 0.5
f 6/41/10 64/36/10 62/42/10

v 2.3 1.7 0.5
f 64/36/10 6/41/10 65/43/10

f 65/43/10 6/41/10 5/44/10

v 2.3 2.3 0.5
vt 90.5512 90.5512
f 65/43/10 5/44/10 66/95/10

v 1.7 2.3 0.5
vt 66.9291 90.5512
f 66/95/10 5/44/10 67/96/10

v 1.5 2.5 0.5
vt 59.0551 98.4252
f 68/97/10 67/96/10 5/44/10

v 1.5 2 0.5
vt 59.0551 78.7402
f 69/98/10 67/96/10 68/97/10

v 1.7 1.7 0.5
vt 66.9291 66.9291
f 69/98/10 70/99/10 67/96/10

f 64/36/10 70/99/10 69/98/10

f 70/99/10 64/36/10 65/43/10

v 2.3 1.7 0.25
v 1.7 1.7 0.25
f 70/75/5 65/76/5 71/77/5 72/78/5 

vt 19.685 66.9291
vt 19.685 90.5512
v 2.3 2.3 0.25
vt 9.84252 90.5512
vt 9.84252 66.9291
f 65/100/4 66/101/4 73/102/4 71/103/4 

v 1.7 2.3 0.25
f 66/79/9 67/80/9 74/81/9 73/82/9 

vt -19.685 90.5512
vt -19.685 66.9291
vt -9.84252 66.9291
vt -9.84252 90.5512
f 67/104/1 70/105/1 72/106/1 74/107/1 

f 73/95/10 74/96/10 72/99/10 71/43/10 

vt 19.685 78.7402
vt 1.9685 59.0551
f 69/108/4 63/109/4 64/3/4

vt 59.0551 45.2122
vn -6.05753e-18 -0.668965 0.743294
vt 59.0551 71.6957
v -1.5 2 0.5
vt -59.0551 71.6957
v -1.5 1.5 0.05
vt -59.0551 45.2122
f 63/110/14 69/111/14 75/112/14 76/113/14 

vt -59.0551 78.7402
v -1.5 2.5 0.5
vt -59.0551 98.4252
f 75/114/10 69/98/10 68/97/10 77/115/10 

v 1.5 2.5 -0.5
v -1.5 2.5 -0.5
f 4/68/5 78/25/5 79/69/5 30/70/5 36/71/5 77/72/5 68/73/5 5/74/5 

vt -98.4252 98.4252
v 2.3 2.3 -0.5
vt -90.5512 90.5512
f 4/116/2 80/117/2 78/115/2

v 2.3 1.7 -0.5
vt -90.5512 66.9291
f 4/116/2 81/118/2 80/117/2

vt -98.4252 59.0551
f 3/119/2 81/118/2 4/116/2

v 1.7 1.7 -0.5
vt -66.9291 66.9291
f 81/118/2 3/119/2 82/120/2

vt -78.7402 59.0551
f 20/121/2 82/120/2 3/119/2

v 1.5 1.5 -0.5
f 83/32/2 82/120/2 20/121/2

v 1.5 2 -0.5
f 82/120/2 83/32/2 84/114/2

vt -3.93701 59.0551
vn -1 -3.60956e-16 5.04344e-32
vt -19.685 78.7402
f 19/122/15 84/123/15 83/6/15

vt 59.0551 48.5737
vn 3.18188e-18 -0.624695 -0.780869
v -1.5 2 -0.5
vt 59.0551 73.7829
vt -59.0551 73.7829
vt -59.0551 48.5737
f 24/124/16 85/125/16 84/126/16 19/127/16 

vt 3.93701 59.0551
f 85/108/1 24/128/1 27/3/1

v -1.7 1.7 -0.5
f 27/36/2 86/99/2 85/98/2

f 86/99/2 27/36/2 29/43/2

v -2.3 1.7 -0.25
v -1.7 1.7 -0.25
f 86/60/5 29/61/5 87/62/5 88/63/5 

v -2.3 2.3 -0.5
v -2.3 2.3 -0.25
f 29/100/1 89/101/1 90/102/1 87/103/1 

f 29/43/2 30/44/2 89/95/2

v -1.7 2.3 -0.5
f 89/95/2 30/44/2 91/96/2

f 79/97/2 91/96/2 30/44/2

f 85/98/2 91/96/2 79/97/2

f 85/98/2 86/99/2 91/96/2

v -1.7 2.3 -0.25
f 91/104/4 86/105/4 88/106/4 92/107/4 

f 88/99/2 87/43/2 90/95/2 92/96/2 

f 89/52/9 91/53/9 92/54/9 90/55/9 

f 84/114/2 85/98/2 79/97/2 78/115/2 

v 1.7 2.3 -0.5
vt -66.9291 90.5512
f 93/129/2 84/114/2 78/115/2

f 82/120/2 84/114/2 93/129/2

v 1.7 2.3 -0.25
v 1.7 1.7 -0.25
f 82/100/1 93/101/1 94/102/1 95/103/1 

v 2.3 2.3 -0.25
f 93/60/9 80/61/9 96/62/9 94/63/9 

f 93/129/2 78/115/2 80/117/2

v 2.3 1.7 -0.25
f 80/104/4 81/105/4 97/106/4 96/107/4 

f 81/52/5 82/53/5 95/54/5 97/55/5 

f 97/118/2 95/120/2 94/129/2 96/117/2 

v 0 1 -0.1
vt 0 39.3701
f 19/32/2 98/130/2 24/36/2

f 19/32/2 21/31/2 98/130/2

vt 3.93701 27.8388
vn 0.707107 0.707107 -0
vt 3.93701 -27.8388
v 1 -1.83697e-16 -0.4
vt 15.748 -27.8388
v 0 1 -0.4
vt 15.748 27.8388
f 98/131/17 21/132/17 99/133/17 100/134/17 

vn 0.707107 -0.707107 -0
v -1.22465e-16 -1 -0.4
f 21/131/18 22/132/18 101/133/18 99/134/18 

vt -3.93701 -27.8388
vn -0.707107 -0.707107 -0
vt -3.93701 27.8388
v -1 6.12323e-17 -0.4
vt -15.748 27.8388
vt -15.748 -27.8388
f 22/135/19 23/136/19 102/137/19 101/138/19 

vn -0.707107 0.707107 -0
f 23/135/20 98/136/20 100/137/20 102/138/20 

f 23/35/2 24/36/2 98/130/2

v 0 0.363604 -0.4
vt 0 14.3151
f 103/139/2 102/35/2 100/130/2

v -0.363604 4.51195e-17 -0.4
vt 14.3151 1.77636e-15
f 104/140/2 102/35/2 103/139/2

v -4.51195e-17 -0.363604 -0.4
vt 1.77636e-15 -14.3151
f 105/141/2 102/35/2 104/140/2

f 102/35/2 105/141/2 101/33/2

f 105/141/2 99/31/2 101/33/2

v 0.363604 -4.51195e-17 -0.4
vt -14.3151 -1.77636e-15
f 99/31/2 105/141/2 106/142/2

vt -15.748 10.1223
vt -15.748 -10.1223
vn 1.57009e-16 1 -0
v -4.51195e-17 -0.363604 -0.1
vt -3.93701 -10.1223
v 0.363604 -4.51195e-17 -0.1
vt -3.93701 10.1223
f 106/143/4 105/144/21 107/145/21 108/146/4 

vt 15.748 -10.1223
vt 15.748 10.1223
vn 1 -1.57009e-16 -0
v -0.363604 4.51195e-17 -0.1
vt 3.93701 10.1223
vt 3.93701 -10.1223
f 105/147/21 104/148/22 109/149/22 107/150/21 

vn -7.85046e-17 -1 -0
v 0 0.363604 -0.1
f 104/147/22 103/148/23 110/149/23 109/150/22 

f 103/143/23 106/144/4 108/145/4 110/146/23 

f 100/130/2 106/142/2 103/139/2

f 99/31/2 106/142/2 100/130/2

f 109/140/2 110/139/2 108/142/2 107/141/2 

vt -78.7402 19.685
vt -59.0551 3.93701
f 20/151/9 19/152/9 83/69/9

vt -78.7402 -59.0551
f 3/119/2 2/11/2 18/153/2 20/121/2 

f 2/11/2 17/30/2 18/153/2

v 2.3 -1.7 -0.5
vt -90.5512 -66.9291
f 2/11/2 111/154/2 17/30/2

f 2/11/2 9/10/2 111/154/2

v 2.3 -2.3 -0.25
v 2.3 -1.7 -0.25
f 111/56/4 9/57/4 112/58/4 113/59/4 

v 1.7 -2.3 -0.25
f 9/52/5 10/53/5 114/54/5 112/55/5 

v 1.7 -1.7 -0.5
v 1.7 -1.7 -0.25
f 10/64/1 115/65/1 116/66/1 114/67/1 

vt -66.9291 -66.9291
f 10/12/2 12/14/2 115/155/2

f 115/155/2 12/14/2 17/30/2

f 115/155/2 17/30/2 111/154/2

f 115/60/9 111/61/9 113/62/9 116/63/9 

f 113/154/2 112/10/2 114/12/2 116/155/2 

v -2.3 2.3 0.5
f 36/116/10 117/117/10 77/115/10

v -2.3 1.7 0.5
f 36/116/10 118/118/10 117/117/10

f 35/119/10 118/118/10 36/116/10

v -1.7 1.7 0.5
f 118/118/10 35/119/10 119/120/10

v -2 1.5 0.5
f 120/121/10 119/120/10 35/119/10

v -1.5 1.5 0.5
f 121/32/10 119/120/10 120/121/10

f 119/120/10 121/32/10 75/114/10

vt -1.9685 59.0551
vn 1 -3.60956e-16 -0
f 76/156/24 75/123/24 121/6/24

f 120/89/9 76/90/9 121/73/9

vt -45.2122 59.0551
vn 0.668965 0 0.743294
vt -71.6957 59.0551
v -2 -1.5 0.5
vt -71.6957 -59.0551
vt -45.2122 -59.0551
f 76/157/25 120/158/25 122/159/25 60/160/25 

f 35/119/10 34/11/10 122/153/10 120/121/10 

v -1.5 -1.5 0.5
f 34/11/10 123/30/10 122/153/10

v -2.3 -1.7 0.5
f 34/11/10 124/154/10 123/30/10

v -2.3 -2.3 0.5
f 34/11/10 125/10/10 124/154/10

f 33/9/10 125/10/10 34/11/10

v -1.7 -2.3 0.5
f 125/10/10 33/9/10 126/12/10

f 47/13/10 126/12/10 33/9/10

f 126/12/10 47/13/10 58/14/10

v -1.7 -1.7 0.5
f 126/12/10 58/14/10 127/155/10

f 127/155/10 58/14/10 123/30/10

vt -1.9685 -59.0551
f 58/21/1 60/161/1 123/7/1

vt -59.0551 -1.9685
vt -78.7402 -19.685
f 60/162/5 122/163/5 123/72/5

f 127/155/10 123/30/10 124/154/10

v -2.3 -1.7 0.25
v -1.7 -1.7 0.25
f 127/75/9 124/76/9 128/77/9 129/78/9 

v -2.3 -2.3 0.25
f 124/56/1 125/57/1 130/58/1 128/59/1 

v -1.7 -2.3 0.25
f 125/79/5 126/80/5 131/81/5 130/82/5 

f 126/64/4 127/65/4 129/66/4 131/67/4 

f 128/154/10 130/10/10 131/12/10 129/155/10 

v -1 0 0.05
vt -39.3701 0
f 60/30/10 132/164/10 76/32/10

v 1.83697e-16 -1 0.05
vt 7.23217e-15 -39.3701
f 132/164/10 60/30/10 133/165/10

f 59/34/10 133/165/10 60/30/10

v 1 1.22465e-16 0.05
vt 39.3701 4.82144e-15
f 133/165/10 59/34/10 134/166/10

f 134/166/10 59/34/10 63/36/10

v -6.12323e-17 1 0.05
vt -2.41072e-15 39.3701
f 134/166/10 63/36/10 135/167/10

f 76/32/10 135/167/10 63/36/10

f 76/32/10 132/164/10 135/167/10

vt 1.9685 27.8388
vt 1.9685 -27.8388
v -1 0 0.35
vt 13.7795 -27.8388
v -6.12323e-17 1 0.35
vt 13.7795 27.8388
f 135/168/20 132/169/20 136/170/20 137/171/20 

v 1.83697e-16 -1 0.35
f 132/168/19 133/169/19 138/170/19 136/171/19 

vt -1.9685 -27.8388
vt -1.9685 27.8388
v 1 1.22465e-16 0.35
vt -13.7795 27.8388
vt -13.7795 -27.8388
f 133/172/18 134/173/18 139/174/18 138/175/18 

f 134/172/17 135/173/17 137/174/17 139/175/17 

v -4.51195e-17 0.363604 0.35
vt -1.77636e-15 14.3151
f 140/176/10 139/166/10 137/167/10

v 0.363604 4.51195e-17 0.35
f 141/140/10 139/166/10 140/176/10

v 1.35358e-16 -0.363604 0.35
vt 5.32907e-15 -14.3151
f 142/177/10 139/166/10 141/140/10

f 139/166/10 142/177/10 138/165/10

f 142/177/10 136/164/10 138/165/10

v -0.363604 4.51195e-17 0.35
vt -14.3151 1.77636e-15
f 136/164/10 142/177/10 143/178/10

vt -13.7795 10.1223
vn 1 7.85046e-17 -0
vt -13.7795 -10.1223
vn -2.35514e-16 1 -0
v 1.35358e-16 -0.363604 0.05
vt -1.9685 -10.1223
v -0.363604 4.51195e-17 0.05
vt -1.9685 10.1223
f 143/179/26 142/180/27 144/181/27 145/182/26 

vt 13.7795 -10.1223
vt 13.7795 10.1223
vn -1 -1.57009e-16 -0
v 0.363604 4.51195e-17 0.05
vt 1.9685 10.1223
vt 1.9685 -10.1223
f 142/183/27 141/184/28 146/185/28 144/186/27 

vn 7.85046e-17 -1 -0
v -4.51195e-17 0.363604 0.05
f 141/183/28 140/184/29 147/185/29 146/186/28 

f 140/179/29 143/180/26 145/181/26 147/182/29 

f 137/167/10 143/178/10 140/176/10

f 136/164/10 143/178/10 137/167/10

f 146/140/10 147/176/10 145/178/10 144/177/10 

v -1.7 2.3 0.5
f 119/120/10 75/114/10 148/129/10

f 148/129/10 75/114/10 77/115/10

f 148/129/10 77/115/10 117/117/10

v -2.3 2.3 0.25
v -1.7 2.3 0.25
f 148/75/9 117/76/9 149/77/9 150/78/9 

v -2.3 1.7 0.25
f 117/104/1 118/105/1 151/106/1 149/107/1 

v -1.7 1.7 0.25
f 118/79/5 119/80/5 152/81/5 151/82/5 

f 119/100/4 148/101/4 150/102/4 152/103/4 

f 150/129/10 149/117/10 151/118/10 152/120/10 

vn -3.60956e-16 -1 -0
f 63/162/30 62/163/30 64/72/30

vt 3.93701 -59.0551
vn 1 3.60956e-16 5.04344e-32
f 16/187/31 13/88/31 37/2/31

f 26/151/5 16/152/5 37/69/5

